<?xml version="1.0" standalone="no"?>
<!DOCTYPE svg PUBLIC "-//W3C//DTD SVG 20010904//EN"
 "http://www.w3.org/TR/2001/REC-SVG-20010904/DTD/svg10.dtd">
<svg version="1.0" xmlns="http://www.w3.org/2000/svg"
 width="30.000000pt" height="30.000000pt" viewBox="0 0 30.000000 30.000000"
 preserveAspectRatio="xMidYMid meet">

<g transform="translate(0.000000,30.000000) scale(0.100000,-0.100000)"
fill="#000000" stroke="none">
<path d="M200 279 c0 -6 -6 -9 -12 -7 -15 5 -50 -27 -40 -37 4 -3 0 -10 -8
-16 -13 -8 -13 -10 0 -18 8 -6 12 -13 8 -16 -8 -9 25 -43 36 -37 4 2 12 -2 17
-9 8 -12 11 -12 18 1 6 8 13 12 16 8 9 -8 43 25 37 36 -2 4 2 12 9 17 12 8 12
11 -1 18 -8 6 -12 13 -8 16 10 10 -25 42 -39 37 -7 -2 -13 1 -13 7 0 6 -4 11
-10 11 -5 0 -10 -5 -10 -11z m40 -44 c15 -18 10 -45 -12 -59 -35 -22 -74 27
-48 59 16 19 44 19 60 0z"/>
<path d="M194 219 c-10 -17 13 -36 27 -22 12 12 4 33 -11 33 -5 0 -12 -5 -16
-11z"/>
<path d="M26 214 c-14 -15 -26 -30 -26 -34 0 -9 51 -60 60 -60 9 0 60 51 60
60 0 9 -51 60 -60 60 -4 0 -19 -12 -34 -26z m59 -34 c0 -18 -6 -26 -23 -28
-13 -2 -25 3 -28 12 -10 26 4 48 28 44 17 -2 23 -10 23 -28z"/>
<path d="M50 180 c0 -5 5 -10 10 -10 6 0 10 5 10 10 0 6 -4 10 -10 10 -5 0
-10 -4 -10 -10z"/>
<path d="M120 100 c-20 -20 -20 -60 0 -80 34 -34 96 -9 96 40 0 49 -63 75 -96
40z m65 -40 c0 -18 -6 -26 -23 -28 -13 -2 -25 3 -28 12 -10 26 4 48 28 44 17
-2 23 -10 23 -28z"/>
<path d="M150 60 c0 -5 5 -10 10 -10 6 0 10 5 10 10 0 6 -4 10 -10 10 -5 0
-10 -4 -10 -10z"/>
</g>
</svg>
