<svg width="40" height="40" viewBox="0 0 30 30" fill="none" xmlns="http://www.w3.org/2000/svg">
<circle cx="15" cy="15" r="14.5" fill="#E5EBF5" stroke="black"/>
<circle cx="8" cy="11" r="1.5" fill="#CAD8EA" stroke="black"/>
<circle cx="16.5" cy="6.5" r="2" fill="#CAD8EA" stroke="black"/>
<circle cx="23" cy="14" r="1.5" fill="#CAD8EA" stroke="black"/>
<circle cx="14" cy="23" r="2.5" fill="#CAD8EA" stroke="black"/>
<path d="M12 1.32031L9.27982 3.66859C7.13315 5.52178 5.52661 7.92016 4.62981 10.6106L4.53614 10.8916C3.85404 12.9379 3.63887 15.1109 3.90641 17.2513V17.2513C4.29183 20.3347 5.66129 23.2116 7.81149 25.455L10.5 28.26L9.8375 28.0009C7.33511 27.0222 5.17789 25.3256 3.63701 23.1243V23.1243C2.88297 22.0471 2.2888 20.8665 1.87297 19.6191L1.71178 19.1355C1.24034 17.7213 1 16.2404 1 14.7497V14.5643C1 12.2302 1.6197 9.93801 2.79577 7.92189V7.92189C3.91382 6.00524 5.49757 4.40181 7.40028 3.26018L7.74889 3.05102C8.91077 2.35389 10.1631 1.81999 11.4705 1.46434L12 1.32031Z" fill="#CAD8EA"/>
</svg>
