<svg width="150" height="150" viewBox="0 0 150 150" fill="none" xmlns="http://www.w3.org/2000/svg">
<path d="M131.938 83.4538C132.388 82.5298 132.787 81.5578 133.132 80.5393C137.082 68.8843 131.109 54.9223 118.533 51.5518C117.174 34.4758 105.174 22.7623 91.6214 20.7628C76.1099 18.4753 61.9004 28.3288 57.1724 43.9903C51.4739 41.9713 45.9209 42.2173 40.6874 45.2758C38.3129 46.3738 36.1409 47.9938 34.1924 50.1253C31.3319 53.2543 29.4719 57.2038 28.7144 61.3678C27.5924 61.5448 26.4899 61.7218 25.4504 62.0938C19.3904 64.2673 15.5669 68.7403 14.5184 75.4783C13.8659 79.6738 15.1829 83.8588 15.9179 85.5493C18.8204 92.2318 25.5509 96.0193 32.3894 95.0173C32.7299 94.9678 33.2249 95.1208 33.5174 95.3668C33.8789 106.047 39.0644 115.492 46.8434 120.888C59.3249 129.546 75.3839 126.879 85.5149 115.006C89.8559 119.446 95.0219 121.603 101.091 120.82C107.125 120.042 111.811 116.712 115.23 111.297C116.809 111.721 118.306 112.333 119.854 112.503C125.917 113.166 130.84 110.755 134.452 105.303C135.835 103.216 137.142 100.512 137.142 95.7718C137.143 90.8893 135.204 86.4388 131.938 83.4538Z" fill="#7FE7D3"/>
<path d="M114.096 73.5118C114.096 73.5118 131.632 73.5118 131.739 73.5118C135.789 73.5118 139.071 70.2283 139.071 66.1783C139.071 62.6458 136.572 59.6968 133.245 59.0023C133.284 58.6933 133.309 58.3798 133.309 58.0603C133.309 53.8663 129.909 50.4658 125.715 50.4658C123.238 50.4658 121.045 51.6568 119.659 53.4913C119.305 48.8218 115.134 45.2203 110.254 45.8173C106.686 46.2538 103.735 49.0123 103.078 52.5463C102.868 53.6803 102.889 54.7798 103.099 55.8118C102.142 54.7813 100.78 54.1333 99.2638 54.1333C96.4888 54.1333 94.2223 56.2948 94.0438 59.0248C92.7838 58.7458 91.4128 58.7638 89.9683 59.3068C87.2083 60.3433 85.2433 62.9413 85.1278 65.8873C84.9643 70.0708 88.3078 73.5148 92.4553 73.5148C92.7703 73.5148 93.8773 73.5148 94.1323 73.5148H109.359" fill="#FDFCEF"/>
<path d="M131.74 74.2604H114.096C113.682 74.2604 113.346 73.9244 113.346 73.5104C113.346 73.0964 113.682 72.7604 114.096 72.7604H131.739C135.367 72.7604 138.321 69.8069 138.321 66.1769C138.321 63.0764 136.122 60.3674 133.092 59.7344C132.709 59.6549 132.453 59.2949 132.501 58.9064C132.535 58.6274 132.559 58.3454 132.559 58.0589C132.559 54.2834 129.489 51.2144 125.715 51.2144C123.556 51.2144 121.567 52.2089 120.258 53.9414C120.07 54.1904 119.749 54.2969 119.448 54.2084C119.149 54.1199 118.935 53.8574 118.912 53.5469C118.756 51.4814 117.744 49.5404 116.137 48.2234C114.513 46.8914 112.453 46.2989 110.346 46.5599C107.097 46.9589 104.412 49.4744 103.816 52.6814C103.63 53.6834 103.636 54.6854 103.834 55.6604C103.902 55.9904 103.741 56.3234 103.443 56.4764C103.146 56.6339 102.778 56.5664 102.55 56.3204C101.688 55.3934 100.521 54.8819 99.2654 54.8819C96.9119 54.8819 94.9484 56.7224 94.7939 59.0714C94.7789 59.2904 94.6709 59.4914 94.4954 59.6219C94.3199 59.7539 94.0934 59.8019 93.8834 59.7554C92.6234 59.4794 91.4279 59.5589 90.2339 60.0059C87.7304 60.9479 85.9799 63.3224 85.8794 65.9144C85.8089 67.7249 86.4599 69.4394 87.7124 70.7414C88.9649 72.0434 90.6509 72.7619 92.4584 72.7619H109.362C109.776 72.7619 110.112 73.0979 110.112 73.5119C110.112 73.9259 109.776 74.2619 109.362 74.2619H92.4584C90.2399 74.2619 88.1699 73.3814 86.6324 71.7809C85.0949 70.1834 84.2954 68.0789 84.3824 65.8574C84.5069 62.6684 86.6474 59.7539 89.7089 58.6034C90.9089 58.1534 92.1494 58.0049 93.4109 58.1549C93.9749 55.4219 96.4064 53.3819 99.2684 53.3819C100.294 53.3819 101.299 53.6519 102.184 54.1469C102.184 53.5694 102.237 52.9889 102.345 52.4099C103.059 48.5669 106.275 45.5489 110.167 45.0719C112.689 44.7644 115.147 45.4709 117.091 47.0639C118.596 48.2984 119.665 49.9904 120.148 51.8519C121.666 50.4794 123.627 49.7144 125.718 49.7144C130.318 49.7144 134.062 53.4584 134.062 58.0589C134.062 58.1834 134.059 58.3079 134.052 58.4309C137.433 59.4404 139.824 62.5949 139.824 66.1769C139.822 70.6349 136.197 74.2604 131.74 74.2604Z" fill="#472B29"/>
<path d="M109.846 57.3584C107.134 57.1799 104.799 59.0534 104.632 61.5419C104.611 61.8509 104.625 62.1554 104.67 62.4509C104.146 61.8599 103.372 61.4594 102.483 61.4009C100.855 61.2944 99.4498 62.3684 99.2458 63.831C98.9503 63.75 98.6413 63.6959 98.3218 63.6749C95.9488 63.5189 93.9058 65.1584 93.7588 67.3364" fill="#FDFCEF"/>
<path d="M93.7606 67.7102C93.7516 67.7102 93.7426 67.7102 93.7351 67.7087C93.5281 67.6952 93.3721 67.5167 93.3856 67.3097C93.5446 64.9292 95.7751 63.1277 98.3476 63.2987C98.5531 63.3122 98.7571 63.3377 98.9611 63.3782C99.3706 61.9262 100.836 60.8972 102.51 61.0277C103.148 61.0682 103.746 61.2677 104.255 61.6007C104.256 61.5722 104.258 61.5452 104.259 61.5152C104.439 58.8242 106.938 56.7722 109.872 56.9837C110.079 56.9972 110.235 57.1757 110.222 57.3827C110.208 57.5897 110.036 57.7652 109.823 57.7307C107.337 57.5657 105.161 59.2862 105.008 61.5662C104.988 61.8437 105 62.1212 105.042 62.3942C105.068 62.5577 104.981 62.7212 104.831 62.7917C104.682 62.8622 104.502 62.8247 104.391 62.7002C103.908 62.1542 103.223 61.8257 102.459 61.7747C101.058 61.7087 99.7966 62.6087 99.6181 63.8807C99.6031 63.9872 99.5431 64.0832 99.4531 64.1432C99.3616 64.2032 99.2521 64.2212 99.1471 64.1912C98.8666 64.1147 98.5816 64.0667 98.2966 64.0457C96.1366 63.9107 94.2661 65.3912 94.1341 67.3592C94.1206 67.5587 93.9571 67.7102 93.7606 67.7102Z" fill="#472B29"/>
<path d="M134.709 59.8607C132.161 58.6592 129.213 59.5097 128.126 61.7612C127.991 62.0402 127.89 62.3297 127.824 62.6222" fill="#FDFCEF"/>
<path d="M127.824 62.9968C127.797 62.9968 127.768 62.9938 127.74 62.9878C127.539 62.9413 127.411 62.7403 127.458 62.5378C127.531 62.2153 127.642 61.8988 127.786 61.5988C128.962 59.1658 132.141 58.2373 134.868 59.5213C135.055 59.6113 135.136 59.8333 135.048 60.0208C134.959 60.2098 134.734 60.2848 134.548 60.2008C132.187 59.0863 129.459 59.8603 128.461 61.9228C128.341 62.1733 128.248 62.4358 128.188 62.7043C128.149 62.8798 127.995 62.9968 127.824 62.9968Z" fill="#472B29"/>
<path d="M106.203 32.0925H91.1579C90.7439 32.0925 90.4079 31.7565 90.4079 31.3425C90.4079 30.9285 90.7439 30.5925 91.1579 30.5925H106.203C106.617 30.5925 106.953 30.9285 106.953 31.3425C106.953 31.7565 106.617 32.0925 106.203 32.0925ZM110.524 32.0925H108.355C107.941 32.0925 107.605 31.7565 107.605 31.3425C107.605 30.9285 107.941 30.5925 108.355 30.5925H110.524C110.938 30.5925 111.274 30.9285 111.274 31.3425C111.274 31.7565 110.94 32.0925 110.524 32.0925ZM116.607 32.0925H112.789C112.375 32.0925 112.039 31.7565 112.039 31.3425C112.039 30.9285 112.375 30.5925 112.789 30.5925H116.607C117.021 30.5925 117.357 30.9285 117.357 31.3425C117.357 31.7565 117.021 32.0925 116.607 32.0925ZM113.568 26.499H99.1424C98.7284 26.499 98.3924 26.163 98.3924 25.749C98.3924 25.335 98.7284 24.999 99.1424 24.999H113.568C113.982 24.999 114.318 25.335 114.318 25.749C114.318 26.163 113.983 26.499 113.568 26.499ZM96.5459 26.499H95.6759C95.2619 26.499 94.9259 26.163 94.9259 25.749C94.9259 25.335 95.2619 24.999 95.6759 24.999H96.5459C96.9599 24.999 97.2959 25.335 97.2959 25.749C97.2959 26.163 96.9599 26.499 96.5459 26.499ZM92.9804 26.499H90.7964C90.3824 26.499 90.0464 26.163 90.0464 25.749C90.0464 25.335 90.3824 24.999 90.7964 24.999H92.9804C93.3944 24.999 93.7304 25.335 93.7304 25.749C93.7304 26.163 93.3959 26.499 92.9804 26.499ZM109.723 29.295H102.183C101.769 29.295 101.433 28.959 101.433 28.545C101.433 28.131 101.769 27.795 102.183 27.795H109.723C110.137 27.795 110.473 28.131 110.473 28.545C110.473 28.959 110.137 29.295 109.723 29.295Z" fill="white"/>
<path d="M109.723 26.499H107.838C107.424 26.499 107.088 26.163 107.088 25.749C107.088 25.335 107.424 24.999 107.838 24.999H109.723C110.137 24.999 110.473 25.335 110.473 25.749C110.473 26.163 110.137 26.499 109.723 26.499ZM99.9989 29.295H97.3604C96.9464 29.295 96.6104 28.959 96.6104 28.545C96.6104 28.131 96.9464 27.795 97.3604 27.795H99.9989C100.413 27.795 100.749 28.131 100.749 28.545C100.749 28.959 100.414 29.295 99.9989 29.295Z" fill="white"/>
<path d="M99.1051 108.907H54.5356C48.8866 108.907 44.2651 104.286 44.2651 98.6369V54.0674C44.2651 48.4184 48.8866 43.7969 54.5356 43.7969H99.1051C104.754 43.7969 109.376 48.4184 109.376 54.0674V98.6369C109.377 104.286 104.754 108.907 99.1051 108.907Z" fill="#C0D078"/>
<path d="M99.1048 109.958H54.5353C48.2923 109.958 43.2148 104.879 43.2148 98.6371V54.0691C43.2148 47.8261 48.2938 42.7471 54.5353 42.7471H99.1048C105.348 42.7471 110.427 47.8261 110.427 54.0691V98.6386C110.427 104.88 105.348 109.958 99.1048 109.958ZM54.5353 44.8471C49.4503 44.8471 45.3148 48.9841 45.3148 54.0676V98.6371C45.3148 103.722 49.4503 107.856 54.5353 107.856H99.1048C104.19 107.856 108.325 103.721 108.325 98.6371V54.0691C108.325 48.9841 104.188 44.8486 99.1048 44.8486L54.5353 44.8471Z" fill="#472B29"/>
<path d="M96.402 104.257H57.24C52.662 104.257 48.9165 100.512 48.9165 95.9338V56.7703C48.9165 52.1923 52.662 48.4468 57.24 48.4468H96.4035C100.981 48.4468 104.727 52.1923 104.727 56.7703V95.9338C104.726 100.512 100.98 104.257 96.402 104.257Z" fill="#FDFCEE"/>
<path d="M96.2446 104.781H57.3976C52.4311 104.781 48.3916 100.743 48.3916 95.7763V56.9293C48.3916 51.9628 52.4311 47.9233 57.3976 47.9233H94.3921C94.6816 47.9233 94.9171 48.1573 94.9171 48.4483C94.9171 48.7393 94.6816 48.9733 94.3921 48.9733H57.3976C53.0116 48.9733 49.4416 52.5433 49.4416 56.9308V95.7778C49.4416 100.164 53.0101 103.734 57.3976 103.734H96.2446C100.632 103.734 104.201 100.164 104.201 95.7778V74.2858C104.201 73.9963 104.436 73.7608 104.726 73.7608C105.015 73.7608 105.251 73.9948 105.251 74.2858V95.7763C105.251 100.743 101.21 104.781 96.2446 104.781ZM104.726 71.7088C104.436 71.7088 104.201 71.4748 104.201 71.1838V67.0498C104.201 66.7603 104.436 66.5248 104.726 66.5248C105.015 66.5248 105.251 66.7588 105.251 67.0498V71.1838C105.251 71.4748 105.017 71.7088 104.726 71.7088ZM104.726 65.5093C104.436 65.5093 104.201 65.2753 104.201 64.9843V62.9173C104.201 62.6278 104.436 62.3923 104.726 62.3923C105.015 62.3923 105.251 62.6263 105.251 62.9173V64.9843C105.251 65.2738 105.017 65.5093 104.726 65.5093Z" fill="#472B29"/>
<path d="M59.8514 113.059C62.6759 113.059 65.1269 113.059 65.1614 113.059C68.3264 113.059 70.8929 110.548 70.8929 107.451C70.8929 104.748 68.9399 102.493 66.3404 101.961C66.3704 101.724 66.3914 101.485 66.3914 101.241C66.3914 98.0324 63.7334 95.4314 60.4559 95.4314C58.5209 95.4314 56.8064 96.3419 55.7234 97.7459C55.4459 94.1744 52.1864 91.4189 48.3734 91.8764C45.5849 92.2109 43.2779 94.3199 42.7649 97.0229C42.5999 97.8899 42.6179 98.7314 42.7814 99.5204C42.0344 98.7329 40.9694 98.2364 39.7844 98.2364C37.6154 98.2364 35.8439 99.8894 35.7044 101.977C34.7189 101.764 33.6479 101.778 32.5199 102.192C30.3629 102.984 28.8269 104.971 28.7369 107.226C28.6094 110.425 31.2224 113.059 34.4639 113.059C34.7099 113.059 35.5754 113.059 35.7749 113.059H47.6759M50.1344 113.059H50.6744Z" fill="#FDFCEF"/>
<path d="M65.1617 113.81H59.8502C59.4362 113.81 59.1002 113.474 59.1002 113.06C59.1002 112.646 59.4362 112.31 59.8502 112.31H65.1617C67.9082 112.31 70.1417 110.13 70.1417 107.451C70.1417 105.165 68.4797 103.164 66.1892 102.696C65.8052 102.617 65.5472 102.257 65.5952 101.868C65.6207 101.663 65.6387 101.454 65.6387 101.24C65.6387 98.4511 63.3122 96.1816 60.4532 96.1816C58.8152 96.1816 57.3062 96.9181 56.3147 98.2036C56.1257 98.4496 55.8047 98.5486 55.5062 98.4646C55.2092 98.3746 54.9977 98.1136 54.9737 97.8046C54.8552 96.2746 54.1247 94.8886 52.9187 93.8986C51.6752 92.8771 50.0897 92.4301 48.4592 92.6191C45.9902 92.9146 43.9502 94.7821 43.4987 97.1611C43.3577 97.9006 43.3622 98.6431 43.5137 99.3676C43.5812 99.6961 43.4237 100.029 43.1267 100.185C42.8312 100.34 42.4667 100.28 42.2342 100.035C41.5907 99.3586 40.7192 98.9851 39.7802 98.9851C38.0267 98.9851 36.5627 100.322 36.4487 102.026C36.4337 102.245 36.3257 102.443 36.1517 102.575C35.9777 102.705 35.7587 102.755 35.5427 102.708C34.5842 102.503 33.6782 102.561 32.7752 102.896C30.8822 103.59 29.5592 105.342 29.4827 107.253C29.4302 108.567 29.9072 109.817 30.8252 110.772C31.7777 111.762 33.0692 112.308 34.4597 112.308H47.6717C48.0857 112.308 48.4217 112.644 48.4217 113.058C48.4217 113.472 48.0857 113.808 47.6717 113.808H34.4597C32.6822 113.808 30.9632 113.081 29.7437 111.812C28.5392 110.558 27.9152 108.918 27.9842 107.195C28.0847 104.682 29.8022 102.389 32.2592 101.486C33.1727 101.15 34.1177 101.028 35.0792 101.12C35.5952 99.0256 37.5227 97.4836 39.7817 97.4836C40.5212 97.4836 41.2472 97.6531 41.9027 97.9681C41.9162 97.6051 41.9582 97.2421 42.0272 96.8776C42.6002 93.8641 45.1727 91.5001 48.2822 91.1281C50.3282 90.8761 52.3097 91.4551 53.8712 92.7346C54.9932 93.6541 55.7897 94.8481 56.1917 96.1876C57.3782 95.2171 58.8692 94.6786 60.4547 94.6786C64.1417 94.6786 67.1402 97.6201 67.1402 101.237C67.1402 101.288 67.1402 101.339 67.1387 101.391C69.7847 102.224 71.6432 104.673 71.6432 107.448C71.6432 110.957 68.7362 113.81 65.1617 113.81ZM50.6747 113.81H50.1362C49.7222 113.81 49.3862 113.474 49.3862 113.06C49.3862 112.646 49.7222 112.31 50.1362 112.31H50.6747C51.0887 112.31 51.4247 112.646 51.4247 113.06C51.4247 113.474 51.0887 113.81 50.6747 113.81Z" fill="#472B29"/>
<path d="M62.5997 105.105C62.5727 105.105 62.5442 105.102 62.5172 105.096C62.3147 105.049 62.1887 104.848 62.2352 104.646C62.2922 104.397 62.3762 104.155 62.4887 103.927C63.3962 102.09 65.8982 101.41 68.0717 102.418C68.2592 102.505 68.3416 102.727 68.2546 102.915C68.1661 103.104 67.9457 103.185 67.7567 103.098C65.9507 102.264 63.8897 102.784 63.1622 104.257C63.0752 104.433 63.0107 104.619 62.9672 104.811C62.9267 104.986 62.7722 105.105 62.5997 105.105ZM54.8627 113.809H53.2021C52.7881 113.809 52.4521 113.473 52.4521 113.059C52.4521 112.645 52.7881 112.309 53.2021 112.309H54.8627C55.2767 112.309 55.6127 112.645 55.6127 113.059C55.6127 113.473 55.2767 113.809 54.8627 113.809Z" fill="#472B29"/>
<path d="M26.8336 76.0183H11.7886C11.3746 76.0183 11.0386 75.6823 11.0386 75.2683C11.0386 74.8543 11.3746 74.5183 11.7886 74.5183H26.8336C27.2476 74.5183 27.5836 74.8543 27.5836 75.2683C27.5836 75.6823 27.2476 76.0183 26.8336 76.0183ZM31.1551 76.0183H28.9861C28.5721 76.0183 28.2361 75.6823 28.2361 75.2683C28.2361 74.8543 28.5721 74.5183 28.9861 74.5183H31.1551C31.5691 74.5183 31.9051 74.8543 31.9051 75.2683C31.9051 75.6823 31.5706 76.0183 31.1551 76.0183ZM37.2376 76.0183H33.4186C33.0046 76.0183 32.6686 75.6823 32.6686 75.2683C32.6686 74.8543 33.0046 74.5183 33.4186 74.5183H37.2376C37.6516 74.5183 37.9876 74.8543 37.9876 75.2683C37.9876 75.6823 37.6516 76.0183 37.2376 76.0183ZM37.2376 78.8173H22.8136C22.3996 78.8173 22.0636 78.4813 22.0636 78.0673C22.0636 77.6533 22.3996 77.3173 22.8136 77.3173H37.2376C37.6516 77.3173 37.9876 77.6533 37.9876 78.0673C37.9876 78.4813 37.6516 78.8173 37.2376 78.8173ZM20.2156 78.8173H19.3456C18.9316 78.8173 18.5956 78.4813 18.5956 78.0673C18.5956 77.6533 18.9316 77.3173 19.3456 77.3173H20.2156C20.6296 77.3173 20.9656 77.6533 20.9656 78.0673C20.9656 78.4813 20.6296 78.8173 20.2156 78.8173ZM16.6501 78.8173H14.4661C14.0521 78.8173 13.7161 78.4813 13.7161 78.0673C13.7161 77.6533 14.0521 77.3173 14.4661 77.3173H16.6501C17.0641 77.3173 17.4001 77.6533 17.4001 78.0673C17.4001 78.4813 17.0656 78.8173 16.6501 78.8173ZM30.3541 73.2223H22.8136C22.3996 73.2223 22.0636 72.8863 22.0636 72.4723C22.0636 72.0583 22.3996 71.7223 22.8136 71.7223H30.3541C30.7681 71.7223 31.1041 72.0583 31.1041 72.4723C31.1041 72.8863 30.7696 73.2223 30.3541 73.2223ZM30.3541 70.4248H28.4686C28.0546 70.4248 27.7186 70.0888 27.7186 69.6748C27.7186 69.2608 28.0546 68.9248 28.4686 68.9248H30.3541C30.7681 68.9248 31.1041 69.2608 31.1041 69.6748C31.1041 70.0888 30.7696 70.4248 30.3541 70.4248ZM25.4506 81.6133H22.8136C22.3996 81.6133 22.0636 81.2773 22.0636 80.8633C22.0636 80.4493 22.3996 80.1133 22.8136 80.1133H25.4506C25.8646 80.1133 26.2006 80.4493 26.2006 80.8633C26.2006 81.2773 25.8661 81.6133 25.4506 81.6133Z" fill="white"/>
<path d="M71.3158 81.2563C71.1238 81.2563 70.9318 81.1828 70.7848 81.0373C70.4923 80.7448 70.4923 80.2693 70.7848 79.9768L73.6198 77.1403C73.9123 76.8478 74.3878 76.8478 74.6803 77.1403C74.9728 77.4328 74.9728 77.9083 74.6803 78.2008L71.8453 81.0373C71.6998 81.1828 71.5078 81.2563 71.3158 81.2563Z" fill="#472B29"/>
<path d="M59.163 92.6578C58.0485 91.5433 58.0485 89.7208 59.163 88.6063L67.2645 80.5048C68.379 79.3903 70.2015 79.3903 71.316 80.5048C72.4305 81.6193 72.4305 83.4418 71.316 84.5563L63.2145 92.6578C62.1 93.7708 60.2775 93.7708 59.163 92.6578Z" fill="#88AE45"/>
<path d="M61.1881 94.0951C60.3016 94.0951 59.4136 93.7577 58.7386 93.0827C57.3886 91.7312 57.3886 89.5336 58.7386 88.1806L66.8401 80.0807C68.1436 78.7772 70.4341 78.7772 71.7391 80.0807C72.3916 80.7332 72.7501 81.6032 72.7501 82.5302C72.7501 83.4572 72.3916 84.3271 71.7391 84.9811L63.6376 93.0827C62.9626 93.7577 62.0761 94.0951 61.1881 94.0951ZM59.5876 92.2336C60.4711 93.1186 61.9066 93.1186 62.7901 92.2336L70.8916 84.1322C71.3176 83.7077 71.5516 83.1377 71.5516 82.5317C71.5516 81.9257 71.3176 81.3572 70.8916 80.9327C70.0396 80.0792 68.5396 80.0792 67.6891 80.9327L59.5876 89.0327C58.7056 89.9132 58.7056 91.3501 59.5876 92.2336Z" fill="#472B29"/>
<path d="M71.0147 80.7959C70.0742 79.8554 68.5982 79.7939 67.7327 80.6594L67.5752 80.8169L67.9172 81.1589L70.9937 84.2354L71.1512 84.0779C72.0167 83.2124 71.9552 81.7349 71.0147 80.7959Z" fill="#D1DC82"/>
<path d="M70.9997 85.2076C70.8557 85.2076 70.7117 85.1521 70.6022 85.0441L66.9572 81.3961C66.7382 81.1771 66.7382 80.8201 66.9572 80.6011C67.1762 80.3821 67.5332 80.3806 67.7522 80.6026L71.3972 84.2476C71.6162 84.4666 71.6162 84.8251 71.3972 85.0441C71.2877 85.1536 71.1452 85.2076 70.9997 85.2076Z" fill="#472B29"/>
<path opacity="0.74" d="M75.9994 61.6424C74.1195 63.5224 73.0634 66.0722 73.0634 68.7309C73.0635 71.3895 74.1197 73.9393 75.9996 75.8192C77.8796 77.6991 80.4294 78.7553 83.0881 78.7552C85.7468 78.7552 88.2965 77.699 90.1764 75.819C92.0564 73.939 93.1125 71.3892 93.1124 68.7305C93.1124 66.0719 92.0562 63.5221 90.1762 61.6422C88.2962 59.7623 85.7464 58.7062 83.0877 58.7062C80.4291 58.7063 77.8793 59.7624 75.9994 61.6424Z" fill="#77CBD2"/>
<path d="M91.9741 59.8454C87.0526 54.9239 79.0726 54.9239 74.1511 59.8454C69.2296 64.7669 69.2296 72.7469 74.1511 77.6684C79.0726 82.5899 87.0526 82.5899 91.9741 77.6684C96.8971 72.7484 96.8971 64.7684 91.9741 59.8454Z" fill="#E1E0D8"/>
<path d="M83.0623 81.954C79.6813 81.954 76.3003 80.6685 73.7263 78.0945C68.5783 72.945 68.5783 64.569 73.7263 59.421C78.8743 54.2745 87.2518 54.273 92.3983 59.421C97.5463 64.5705 97.5463 72.9465 92.3983 78.0945C89.8243 80.6685 86.4433 81.954 83.0623 81.954ZM83.0623 56.76C79.9888 56.76 76.9153 57.93 74.5753 60.2715C69.8953 64.9515 69.8953 72.5655 74.5753 77.2455C79.2568 81.9285 86.8723 81.927 91.5508 77.2455C96.2308 72.5655 96.2308 64.9515 91.5508 60.2715C89.2093 57.93 86.1358 56.76 83.0623 56.76ZM60.5548 93.6435C60.4753 93.6435 60.4018 93.5925 60.3763 93.513L58.9738 89.1555C58.9423 89.058 58.9963 88.9515 59.0953 88.92C59.1928 88.8885 59.2993 88.944 59.3308 89.0415L60.7333 93.399C60.7648 93.4965 60.7108 93.603 60.6118 93.6345C60.5923 93.6405 60.5743 93.6435 60.5548 93.6435ZM61.4428 93.3405C61.3618 93.3405 61.2868 93.288 61.2628 93.207L59.6728 87.867C59.6428 87.768 59.6998 87.6615 59.7988 87.633C59.8993 87.6105 60.0028 87.6615 60.0313 87.759L61.6213 93.099C61.6513 93.198 61.5943 93.3045 61.4953 93.333C61.4788 93.3375 61.4608 93.3405 61.4428 93.3405ZM61.9783 91.464C61.8973 91.464 61.8223 91.4115 61.7983 91.3305L60.4678 86.862C60.4378 86.763 60.4948 86.6565 60.5938 86.628C60.6943 86.6055 60.7978 86.6565 60.8263 86.754L62.1568 91.2225C62.1868 91.3215 62.1298 91.428 62.0308 91.4565C62.0143 91.461 61.9963 91.464 61.9783 91.464ZM62.5213 89.5065C62.4403 89.5065 62.3653 89.454 62.3413 89.373L61.4038 86.2215C61.3738 86.1225 61.4308 86.016 61.5298 85.9875C61.6288 85.9635 61.7338 86.0175 61.7623 86.1135L62.6998 89.265C62.7298 89.364 62.6728 89.469 62.5738 89.499C62.5558 89.5035 62.5378 89.5065 62.5213 89.5065Z" fill="#472B29"/>
<path d="M75.973 61.6708C74.0931 63.5508 73.037 66.1005 73.0371 68.7592C73.0371 71.4179 74.0933 73.9676 75.9733 75.8475C77.8533 77.7275 80.4031 78.7836 83.0617 78.7835C85.7204 78.7835 88.2701 77.7273 90.1501 75.8473C92.03 73.9673 93.0861 71.4175 93.086 68.7589C93.086 66.1002 92.0298 63.5504 90.1498 61.6705C88.2698 59.7906 85.72 58.7345 83.0614 58.7345C80.4027 58.7346 77.853 59.7908 75.973 61.6708Z" fill="#A8DBDB"/>
<path d="M83.0623 79.2707C80.2528 79.2707 77.6143 78.1772 75.6283 76.1897C73.6438 74.2052 72.5503 71.5652 72.5503 68.7572C72.5503 65.9492 73.6438 63.3092 75.6283 61.3247C77.6143 59.3387 80.2528 58.2437 83.0623 58.2437C85.8703 58.2437 88.5103 59.3372 90.4963 61.3247C92.4823 63.3092 93.5758 65.9492 93.5758 68.7572C93.5758 71.5652 92.4823 74.2052 90.4963 76.1897C88.5103 78.1772 85.8703 79.2707 83.0623 79.2707ZM83.0623 59.2202C80.5138 59.2202 78.1198 60.2117 76.3183 62.0132C74.5168 63.8147 73.5253 66.2102 73.5253 68.7572C73.5253 71.3042 74.5168 73.6997 76.3183 75.5012C78.1198 77.3027 80.5138 78.2942 83.0623 78.2942C85.6093 78.2942 88.0048 77.3027 89.8063 75.5012C91.6078 73.6997 92.6008 71.3042 92.6008 68.7572C92.6008 66.2102 91.6078 63.8147 89.8063 62.0132C88.0048 60.2117 85.6108 59.2202 83.0623 59.2202Z" fill="#472B29"/>
</svg>
