<svg width="22" height="27" viewBox="0 0 22 27" fill="none" xmlns="http://www.w3.org/2000/svg">
<path d="M8.8 0C8.22422 0 7.63555 0.206543 7.21875 0.632812C6.80195 1.05908 6.6 1.66113 6.6 2.25V3.375H0V5.625H1.1V23.625C1.1 25.4751 2.59102 27 4.4 27H17.6C19.409 27 20.9 25.4751 20.9 23.625V5.625H22V3.375H15.4V2.25C15.4 1.66113 15.198 1.05908 14.7813 0.632812C14.3645 0.206543 13.7758 0 13.2 0H8.8ZM8.8 2.25H13.2V3.375H8.8V2.25ZM3.3 5.625H18.7V23.625C18.7 24.249 18.2102 24.75 17.6 24.75H4.4C3.78984 24.75 3.3 24.249 3.3 23.625V5.625ZM5.5 9V21.375H7.7V9H5.5ZM9.9 9V21.375H12.1V9H9.9ZM14.3 9V21.375H16.5V9H14.3Z" fill="white"/>
</svg>
