<svg width="29" height="35" viewBox="0 0 29 35" fill="none" xmlns="http://www.w3.org/2000/svg">
<path d="M12.0938 0.625C11.3577 0.625 10.6051 0.883179 10.0723 1.41602C9.53943 1.94885 9.28125 2.70142 9.28125 3.4375V4.84375H0.84375V7.65625H2.25V30.1562C2.25 32.4689 4.15613 34.375 6.46875 34.375H23.3438C25.6564 34.375 27.5625 32.4689 27.5625 30.1562V7.65625H28.9688V4.84375H20.5312V3.4375C20.5312 2.70142 20.2731 1.94885 19.7402 1.41602C19.2074 0.883179 18.4548 0.625 17.7188 0.625H12.0938ZM12.0938 3.4375H17.7188V4.84375H12.0938V3.4375ZM5.0625 7.65625H24.75V30.1562C24.75 30.9363 24.1238 31.5625 23.3438 31.5625H6.46875C5.68872 31.5625 5.0625 30.9363 5.0625 30.1562V7.65625ZM7.875 11.875V27.3438H10.6875V11.875H7.875ZM13.5 11.875V27.3438H16.3125V11.875H13.5ZM19.125 11.875V27.3438H21.9375V11.875H19.125Z" fill="white"/>
</svg>
